<?xml version="1.0" standalone="no"?>
<!DOCTYPE svg PUBLIC "-//W3C//DTD SVG 20010904//EN"
 "http://www.w3.org/TR/2001/REC-SVG-20010904/DTD/svg10.dtd">
<svg version="1.0" xmlns="http://www.w3.org/2000/svg"
 width="120.000000pt" height="120.000000pt" viewBox="0 0 120.000000 120.000000"
 preserveAspectRatio="xMidYMid meet">
<metadata>
Created by potrace 1.11, written by Peter Selinger 2001-2013
</metadata>
<g transform="translate(0.000000,120.000000) scale(0.100000,-0.100000)"
fill="#000000" stroke="none">
<path d="M526 1166 c-24 -22 -36 -43 -37 -62 -1 -16 -2 -35 -3 -43 -1 -11 -22
-14 -91 -16 -136 -2 -228 -51 -297 -158 -54 -82 -70 -159 -53 -257 6 -38 116
-298 186 -444 10 -22 19 -45 19 -52 0 -22 86 -99 129 -116 50 -20 145 -18 186
3 27 14 35 13 85 -4 92 -32 186 -10 254 58 17 17 51 76 75 131 46 104 62 140
107 239 68 152 74 173 70 265 -3 73 -8 96 -32 141 -16 30 -35 58 -41 62 -18
11 -16 30 7 76 24 46 31 75 34 154 l3 57 -173 0 c-131 0 -185 -4 -220 -16 -42
-14 -49 -14 -79 0 -53 25 -89 20 -129 -18z"/>
</g>
</svg>
